<svg width="27" height="29" viewBox="0 0 27 29" fill="none" xmlns="http://www.w3.org/2000/svg">
<path fill-rule="evenodd" clip-rule="evenodd" d="M25.5553 12.2057H1.78998C1.23798 12.2057 0.789978 11.7577 0.789978 11.2057C0.789978 10.6537 1.23798 10.2057 1.78998 10.2057H25.5553C26.1073 10.2057 26.5553 10.6537 26.5553 11.2057C26.5553 11.7577 26.1073 12.2057 25.5553 12.2057Z" fill="#8456EC"/>
<path fill-rule="evenodd" clip-rule="evenodd" d="M19.6016 17.4128C19.0496 17.4128 18.5963 16.9648 18.5963 16.4128C18.5963 15.8608 19.0376 15.4128 19.5896 15.4128H19.6016C20.1536 15.4128 20.6016 15.8608 20.6016 16.4128C20.6016 16.9648 20.1536 17.4128 19.6016 17.4128Z" fill="#8456EC"/>
<path fill-rule="evenodd" clip-rule="evenodd" d="M13.6849 17.4128C13.1329 17.4128 12.6796 16.9648 12.6796 16.4128C12.6796 15.8608 13.1209 15.4128 13.6729 15.4128H13.6849C14.2369 15.4128 14.6849 15.8608 14.6849 16.4128C14.6849 16.9648 14.2369 17.4128 13.6849 17.4128Z" fill="#8456EC"/>
<path fill-rule="evenodd" clip-rule="evenodd" d="M7.75584 17.4128C7.20384 17.4128 6.74918 16.9648 6.74918 16.4128C6.74918 15.8608 7.19184 15.4128 7.74384 15.4128H7.75584C8.30784 15.4128 8.75584 15.8608 8.75584 16.4128C8.75584 16.9648 8.30784 17.4128 7.75584 17.4128Z" fill="#8456EC"/>
<path fill-rule="evenodd" clip-rule="evenodd" d="M19.6016 22.5951C19.0496 22.5951 18.5963 22.1471 18.5963 21.5951C18.5963 21.0431 19.0376 20.5951 19.5896 20.5951H19.6016C20.1536 20.5951 20.6016 21.0431 20.6016 21.5951C20.6016 22.1471 20.1536 22.5951 19.6016 22.5951Z" fill="#8456EC"/>
<path fill-rule="evenodd" clip-rule="evenodd" d="M13.6849 22.5951C13.1329 22.5951 12.6796 22.1471 12.6796 21.5951C12.6796 21.0431 13.1209 20.5951 13.6729 20.5951H13.6849C14.2369 20.5951 14.6849 21.0431 14.6849 21.5951C14.6849 22.1471 14.2369 22.5951 13.6849 22.5951Z" fill="#8456EC"/>
<path fill-rule="evenodd" clip-rule="evenodd" d="M7.75584 22.5951C7.20384 22.5951 6.74918 22.1471 6.74918 21.5951C6.74918 21.0431 7.19184 20.5951 7.74384 20.5951H7.75584C8.30784 20.5951 8.75584 21.0431 8.75584 21.5951C8.75584 22.1471 8.30784 22.5951 7.75584 22.5951Z" fill="#8456EC"/>
<path fill-rule="evenodd" clip-rule="evenodd" d="M19.058 6.72134C18.506 6.72134 18.058 6.27334 18.058 5.72134V1.33334C18.058 0.781343 18.506 0.333344 19.058 0.333344C19.61 0.333344 20.058 0.781343 20.058 1.33334V5.72134C20.058 6.27334 19.61 6.72134 19.058 6.72134Z" fill="#8456EC"/>
<path fill-rule="evenodd" clip-rule="evenodd" d="M8.28705 6.72134C7.73505 6.72134 7.28705 6.27334 7.28705 5.72134V1.33334C7.28705 0.781343 7.73505 0.333344 8.28705 0.333344C8.83905 0.333344 9.28705 0.781343 9.28705 1.33334V5.72134C9.28705 6.27334 8.83905 6.72134 8.28705 6.72134Z" fill="#8456EC"/>
<mask id="mask0_5362_163" style="mask-type:alpha" maskUnits="userSpaceOnUse" x="0" y="2" width="27" height="27">
<path fill-rule="evenodd" clip-rule="evenodd" d="M0.666656 2.43881H26.6667V29H0.666656V2.43881Z" fill="white"/>
</mask>
<g mask="url(#mask0_5362_163)">
<path fill-rule="evenodd" clip-rule="evenodd" d="M8.02799 4.43881C4.57066 4.43881 2.66666 6.28281 2.66666 9.63081V21.6961C2.66666 25.1175 4.57066 27.0001 8.02799 27.0001H19.3053C22.7627 27.0001 24.6667 25.1521 24.6667 21.7975V9.63081C24.672 7.98415 24.2293 6.70415 23.3507 5.82415C22.4467 4.91748 21.0533 4.43881 19.3173 4.43881H8.02799ZM19.3053 29.0001H8.02799C3.48799 29.0001 0.666656 26.2015 0.666656 21.6961V9.63081C0.666656 5.19348 3.48799 2.43881 8.02799 2.43881H19.3173C21.596 2.43881 23.48 3.12148 24.7667 4.41081C26.016 5.66548 26.6733 7.46948 26.6667 9.63348V21.7975C26.6667 26.2401 23.8453 29.0001 19.3053 29.0001Z" fill="#8456EC"/>
</g>
</svg>
